# Solar Panel OBJ Model
# Simple rectangular panel for testing

# Material library
mtllib SolarPanel.mtl

# Vertices - rectangular panel
v 0.0 0.0 0.0
v 2.0 0.0 0.0
v 2.0 1.0 0.0
v 0.0 1.0 0.0
v 0.0 0.0 0.05
v 2.0 0.0 0.05
v 2.0 1.0 0.05
v 0.0 1.0 0.05

# Texture coordinates
vt 0.0 0.0
vt 1.0 0.0
vt 1.0 1.0
vt 0.0 1.0

# Normals
vn 0.0 0.0 -1.0
vn 0.0 0.0 1.0
vn 0.0 -1.0 0.0
vn 1.0 0.0 0.0
vn 0.0 1.0 0.0
vn -1.0 0.0 0.0

# Faces
# Bottom
f 1/1/1 3/3/1 2/2/1
f 1/1/1 4/4/1 3/3/1

# Top
f 5/1/2 6/2/2 7/3/2
f 5/1/2 7/3/2 8/4/2

# Front
f 1/1/3 2/2/3 6/3/3
f 1/1/3 6/3/3 5/4/3

# Right
f 2/1/4 3/2/4 7/3/4
f 2/1/4 7/3/4 6/4/4

# Back
f 3/1/5 4/2/5 8/3/5
f 3/1/5 8/3/5 7/4/5

# Left
f 4/1/6 1/2/6 5/3/6
f 4/1/6 5/3/6 8/4/6
