solid 帆板网格模型
  facet normal 0.0 0.0 1.0
    outer loop
      vertex 0.0 0.0 0.0
      vertex 1.0 0.0 0.0
      vertex 0.5 1.0 0.0
    endloop
  endfacet
  facet normal 0.0 0.0 -1.0
    outer loop
      vertex 0.0 0.0 -0.1
      vertex 0.5 1.0 -0.1
      vertex 1.0 0.0 -0.1
    endloop
  endfacet
  facet normal 0.0 -1.0 0.0
    outer loop
      vertex 0.0 0.0 0.0
      vertex 0.0 0.0 -0.1
      vertex 1.0 0.0 0.0
    endloop
  endfacet
  facet normal 0.0 -1.0 0.0
    outer loop
      vertex 1.0 0.0 0.0
      vertex 0.0 0.0 -0.1
      vertex 1.0 0.0 -0.1
    endloop
  endfacet
  facet normal 0.8944 0.4472 0.0
    outer loop
      vertex 1.0 0.0 0.0
      vertex 1.0 0.0 -0.1
      vertex 0.5 1.0 0.0
    endloop
  endfacet
  facet normal 0.8944 0.4472 0.0
    outer loop
      vertex 0.5 1.0 0.0
      vertex 1.0 0.0 -0.1
      vertex 0.5 1.0 -0.1
    endloop
  endfacet
  facet normal -0.8944 0.4472 0.0
    outer loop
      vertex 0.5 1.0 0.0
      vertex 0.5 1.0 -0.1
      vertex 0.0 0.0 0.0
    endloop
  endfacet
  facet normal -0.8944 0.4472 0.0
    outer loop
      vertex 0.0 0.0 0.0
      vertex 0.5 1.0 -0.1
      vertex 0.0 0.0 -0.1
    endloop
  endfacet
endsolid 帆板网格模型
